<?xml version="1.0" encoding="UTF-8" standalone="no"?>
<!-- Created with Inkscape (http://www.inkscape.org/) -->

<svg
   width="173.88947mm"
   height="145.43256mm"
   viewBox="0 0 173.88947 145.43256"
   version="1.1"
   id="svg5"
   xml:space="preserve"
   xmlns:inkscape="http://www.inkscape.org/namespaces/inkscape"
   xmlns:sodipodi="http://sodipodi.sourceforge.net/DTD/sodipodi-0.dtd"
   xmlns="http://www.w3.org/2000/svg"
   xmlns:svg="http://www.w3.org/2000/svg"><sodipodi:namedview
     id="namedview7"
     pagecolor="#ffffff"
     bordercolor="#000000"
     borderopacity="0.25"
     inkscape:showpageshadow="2"
     inkscape:pageopacity="0.0"
     inkscape:pagecheckerboard="0"
     inkscape:deskcolor="#d1d1d1"
     inkscape:document-units="mm"
     showgrid="false" /><defs
     id="defs2" /><g
     inkscape:label="Layer 1"
     inkscape:groupmode="layer"
     id="layer1"
     transform="translate(275.24326,-181.48147)"><path
       style="fill:#3b85c7;fill-opacity:1;stroke-width:0.264583"
       d="m -139.10078,326.48926 c -2.21544,-0.74049 -3.28078,-1.36479 -6.91832,-4.05423 -3.61281,-2.67115 -14.58871,-10.725 -27.96087,-20.517 -4.6091,-3.3751 -8.85643,-6.49856 -9.43852,-6.94103 -0.58208,-0.44247 -4.09442,-3.02258 -7.8052,-5.73359 -3.71078,-2.71101 -7.58032,-5.54957 -8.59896,-6.30792 -1.01865,-0.75834 -3.04271,-2.24611 -4.49792,-3.30615 -1.45521,-1.06004 -2.64583,-2.02063 -2.64583,-2.13466 0,-0.19679 3.68499,-3.5964 8.60137,-7.93525 1.2356,-1.09045 4.15154,-3.7133 6.47988,-5.82857 2.32833,-2.11527 5.36442,-4.84982 6.74687,-6.07679 4.05162,-3.59595 11.85115,-10.59085 17.99906,-16.14221 3.14259,-2.83765 8.97762,-8.0764 12.96671,-11.64166 3.9891,-3.56526 9.2205,-8.26839 11.62534,-10.45139 2.40484,-2.183 5.59471,-5.02477 7.0886,-6.31503 3.88371,-3.35435 4.50696,-4.43181 3.09768,-5.3552 -0.49516,-0.32444 -0.98149,-0.39507 -1.87606,-0.27246 -1.65968,0.22749 -2.98842,0.85764 -6.58145,3.12126 -1.69592,1.06844 -4.05706,2.55012 -5.24699,3.29264 -1.18993,0.74252 -3.11601,1.94464 -4.28018,2.67136 -1.16417,0.72673 -3.66448,2.30819 -5.55625,3.51436 -4.63822,2.95726 -12.06766,7.65134 -20.10833,12.70487 -2.61938,1.64627 -5.8936,3.70784 -7.27604,4.58127 -1.38245,0.87343 -3.40651,2.14561 -4.49792,2.82707 -1.09141,0.68145 -3.11547,1.95243 -4.49792,2.8244 -3.21601,2.02847 -11.51835,7.26499 -17.4625,11.01409 -2.54661,1.6062 -6.59474,4.1637 -8.99583,5.68334 -2.40109,1.51963 -4.70103,2.95787 -5.11097,3.19609 -0.40994,0.23821 -1.87481,1.16623 -3.25527,2.06226 l -2.50994,1.62915 -3.49159,-1.14147 c -1.92038,-0.62781 -6.05145,-1.94077 -9.18014,-2.9177 -9.98206,-3.11686 -14.86281,-4.65082 -18.25625,-5.73773 -1.81901,-0.58262 -4.65027,-1.45603 -6.29169,-1.9409 -5.17687,-1.52923 -7.22569,-2.68245 -8.04127,-4.52622 -0.63212,-1.429 -0.45613,-2.59499 0.6148,-4.07337 0.88958,-1.22803 3.99095,-3.34595 6.07669,-4.14976 0.78307,-0.30179 3.09063,-1.19663 5.12792,-1.98855 2.0373,-0.79192 5.13292,-1.98573 6.87917,-2.65291 2.96629,-1.13331 8.46757,-3.25407 16.27188,-6.27285 1.81901,-0.70361 5.21229,-2.01109 7.54062,-2.90552 2.32833,-0.89443 5.75138,-2.21477 7.60677,-2.93409 7.75905,-3.0081 10.36752,-4.01599 15.0151,-5.80167 2.69214,-1.03437 6.08542,-2.34312 7.54063,-2.90835 1.45521,-0.56522 4.84849,-1.8749 7.54062,-2.91041 2.69214,-1.03551 6.08542,-2.3452 7.54063,-2.91042 1.45521,-0.56522 4.84849,-1.87521 7.54062,-2.91109 2.69214,-1.03588 6.41593,-2.48106 8.2751,-3.21151 1.85918,-0.73045 4.18089,-1.60642 5.15938,-1.94658 0.97848,-0.34017 2.67203,-0.98361 3.76344,-1.42988 1.95247,-0.79834 7.26657,-2.86538 14.81667,-5.76329 2.11005,-0.80989 5.32473,-2.05159 7.14374,-2.75934 1.81902,-0.70776 4.97417,-1.92745 7.01146,-2.71044 2.03729,-0.78298 5.49011,-2.11028 7.67292,-2.94956 2.18281,-0.83928 5.90817,-2.28866 8.27857,-3.22084 5.50825,-2.16618 7.07826,-2.56733 9.44322,-2.41281 3.87939,0.25347 5.92277,2.3011 6.52252,6.5361 0.36677,2.58988 0.39516,2.43062 -4.79005,26.87412 -0.71,3.34698 -2.02018,9.59776 -2.9115,13.89062 -0.89133,4.29287 -2.20777,10.54365 -2.92544,13.89063 -0.71765,3.34698 -1.533,7.27604 -1.81187,8.73125 -0.27887,1.45521 -0.99039,4.90802 -1.58115,7.67292 -2.44028,11.42096 -3.32775,15.62151 -4.4161,20.90208 -0.62984,3.05594 -1.87405,9.00906 -2.76491,13.22917 -0.89086,4.2201 -2.03227,9.69698 -2.53646,12.17083 -1.86915,9.17107 -3.09361,14.5906 -3.60725,15.96593 -0.67875,1.81745 -2.43292,3.96755 -3.89984,4.78008 -1.56164,0.86499 -4.33737,1.01095 -6.3612,0.33451 z"
       id="path248"
       inkscape:export-filename="telegram-icon.png"
       inkscape:export-xdpi="20"
       inkscape:export-ydpi="20" /></g></svg>
